# xmcd
#
# Track frame offsets:
#	150
#	21068
#	37531
#	52706
#	70448
#	90119
#	107700
#	127239
#	144051
#	160957
#
# Disc length: 2434 seconds
#
# Revision: 2
# Processed by: cddbd v1.5.1PL0 Copyright (c) Steve Scherf et al.
# Submitted via: EasyCDDAExtractor 7.1.3.1
#
DISCID=7009800a
DTITLE=NEGROS
DYEAR=2003
DGENRE=Pop
TTITLE0=MI REINA
TTITLE1=MUCHACHITA DE CAMPO
TTITLE2=LO QUE DEJASTE
TTITLE3=TU AUSENCIA
TTITLE4=CONTIGO EN LA CABEZA
TTITLE5=VEN
TTITLE6=ME CASO CON ELLA
TTITLE7=SE ME VA LA VIDA
TTITLE8=LA COSA PRIETA
TTITLE9=ME CAMBIASTE LA VIDA
EXTD=
EXTT0=
EXTT1=
EXTT2=
EXTT3=
EXTT4=
EXTT5=
EXTT6=
EXTT7=
EXTT8=
EXTT9=
PLAYORDER=
